<svg width="21" height="10" viewBox="0 0 21 10" fill="none" xmlns="http://www.w3.org/2000/svg">
<path d="M19.6528 9.25471C19.4182 9.25511 19.1896 9.18026 19.0007 9.04117L10.7487 2.958L2.49663 9.04117C2.38078 9.12673 2.24919 9.18866 2.10939 9.22341C1.96959 9.25816 1.82431 9.26506 1.68184 9.2437C1.53937 9.22235 1.40251 9.17316 1.27906 9.09895C1.15562 9.02474 1.04801 8.92697 0.96238 8.8112C0.876751 8.69544 0.814779 8.56395 0.780002 8.42425C0.745226 8.28455 0.738325 8.13938 0.759696 7.99702C0.802855 7.7095 0.958545 7.4509 1.19252 7.27809L10.0966 0.707612C10.2853 0.56802 10.5139 0.492676 10.7487 0.492676C10.9835 0.492676 11.212 0.56802 11.4007 0.707612L20.3048 7.27809C20.4908 7.41501 20.6286 7.60712 20.6988 7.827C20.7689 8.04688 20.7678 8.28328 20.6955 8.50246C20.6232 8.72165 20.4834 8.9124 20.2962 9.04749C20.1089 9.18258 19.8837 9.25511 19.6528 9.25471Z" fill="#FF3D00"/>
</svg>
