<svg width="134" height="134" viewBox="0 0 134 134" fill="none" xmlns="http://www.w3.org/2000/svg">
<g filter="url(#filter0_d_71348_10318)">
<rect x="7" y="7" width="120" height="120" rx="60" fill="white"/>
<rect x="5.5" y="5.5" width="123" height="123" rx="61.5" stroke="white" stroke-width="3"/>
<circle cx="67" cy="67" r="60" fill="#FF7A00"/>
<path d="M36.0978 83.7144H30.6234L42.9242 49.5325H48.8826L61.1834 83.7144H55.709L46.0453 55.7413H45.7782L36.0978 83.7144ZM37.0158 70.3287H54.7743V74.6682H37.0158V70.3287ZM66.1196 49.5325H72.3785L83.2606 76.1036H83.6611L94.5432 49.5325H100.802V83.7144H95.8952V58.9793H95.578L85.4971 83.6643H81.4246L71.3437 58.9626H71.0265V83.7144H66.1196V49.5325Z" fill="white"/>
</g>
<defs>
<filter id="filter0_d_71348_10318" x="0" y="0" width="134" height="134" filterUnits="userSpaceOnUse" color-interpolation-filters="sRGB">
<feFlood flood-opacity="0" result="BackgroundImageFix"/>
<feColorMatrix in="SourceAlpha" type="matrix" values="0 0 0 0 0 0 0 0 0 0 0 0 0 0 0 0 0 0 127 0" result="hardAlpha"/>
<feOffset/>
<feGaussianBlur stdDeviation="2"/>
<feColorMatrix type="matrix" values="0 0 0 0 0 0 0 0 0 0 0 0 0 0 0 0 0 0 0.1 0"/>
<feBlend mode="normal" in2="BackgroundImageFix" result="effect1_dropShadow_71348_10318"/>
<feBlend mode="normal" in="SourceGraphic" in2="effect1_dropShadow_71348_10318" result="shape"/>
</filter>
</defs>
</svg>
