<svg width="21" height="10" viewBox="0 0 21 10" fill="none" xmlns="http://www.w3.org/2000/svg">
<path d="M10.2485 9.50589C10.0139 9.5063 9.7854 9.43145 9.59655 9.29238L0.693448 2.72264C0.57761 2.63708 0.47977 2.52957 0.405515 2.40623C0.33126 2.28289 0.282043 2.14614 0.260675 2.00379C0.217521 1.71631 0.290421 1.42347 0.463337 1.1897C0.636253 0.955928 0.895022 0.800371 1.18272 0.757248C1.47041 0.714126 1.76347 0.786972 1.99741 0.95976L10.2485 7.04224L18.4997 0.95976C18.6155 0.874204 18.7471 0.812285 18.8869 0.777538C19.0266 0.742791 19.1719 0.735896 19.3144 0.757248C19.4568 0.7786 19.5937 0.82778 19.7171 0.901981C19.8405 0.976181 19.9481 1.07395 20.0337 1.1897C20.1194 1.30545 20.1813 1.43692 20.2161 1.57661C20.2509 1.71629 20.2578 1.86145 20.2364 2.00379C20.215 2.14614 20.1658 2.28289 20.0916 2.40623C20.0173 2.52957 19.9195 2.63708 19.8036 2.72264L10.9005 9.29238C10.7117 9.43145 10.4831 9.5063 10.2485 9.50589Z" fill="#7AE229"/>
</svg>
